<?xml version="1.0" encoding="utf-8"?>
<svg viewBox="3.6381 4.1459 484.9403 516.3753" width="484.9403" height="516.3753" xmlns="http://www.w3.org/2000/svg">
  <g>
    <g transform="matrix(0.1, 0, 0, -0.1, -297.961884, 862.568359)" fill="#000000" stroke="none">
      <path d="M5599 8580 c-422 -40 -671 -320 -620 -695 15 -111 63 -206 140 -277 67 -63 131 -95 290 -149 166 -56 211 -91 211 -164 0 -142 -185 -139 -476 5 -77 39 -149 70 -161 70 -11 0 -32 -9 -47 -21 -34 -27 -34 -68 0 -196 17 -69 27 -141 33 -242 8 -140 9 -145 35 -168 35 -30 100 -31 159 -2 l43 21 114 -26 c147 -32 328 -56 434 -56 157 0 374 54 496 122 69 40 167 138 203 205 61 114 84 302 52 426 -51 195 -169 284 -477 362 -155 40 -204 71 -214 137 -8 49 18 96 64 115 66 28 211 -1 445 -86 62 -23 95 -20 122 9 21 23 17 60 -14 175 -16 56 -24 121 -28 214 -6 125 -8 136 -30 157 -34 32 -79 37 -135 17 -42 -15 -55 -15 -106 -4 -214 47 -391 64 -533 51z"/>
      <path d="M3060 8542 c-16 -6 -40 -58 -40 -87 0 -14 15 -51 33 -83 l32 -57 0 -685 0 -685 -34 -58 c-27 -47 -32 -65 -28 -94 12 -70 1 -68 370 -71 183 -1 349 -3 370 -4 46 -2 75 23 83 73 5 28 -1 49 -30 103 l-36 68 0 158 c0 145 2 160 18 169 53 28 176 -99 259 -266 37 -74 38 -81 36 -168 -4 -140 -30 -129 330 -133 166 -2 328 -4 360 -5 77 -1 111 23 115 82 3 33 -4 53 -32 99 -19 31 -47 88 -61 125 -53 141 -118 255 -201 348 -24 27 -44 55 -44 61 0 6 34 43 75 83 58 56 82 88 109 146 138 298 14 657 -274 797 -55 27 -123 50 -190 64 -101 21 -126 22 -657 23 -304 0 -558 -2 -563 -3z m943 -506 c50 -18 76 -42 98 -91 25 -55 24 -121 -3 -175 -30 -60 -89 -89 -191 -97 -71 -5 -77 -4 -101 20 -26 26 -26 28 -26 172 0 181 3 185 113 185 39 -1 89 -7 110 -14z"/>
      <path d="M6650 8542 c-15 -5 -40 -57 -40 -82 0 -12 16 -54 35 -94 l36 -72 -3 -674 -3 -675 -32 -56 c-18 -31 -33 -66 -33 -78 0 -29 27 -81 43 -82 6 -1 226 -3 487 -5 261 -2 497 -5 524 -5 67 -2 78 14 106 158 13 65 40 180 62 256 22 78 36 146 33 158 -11 33 -47 59 -82 59 -18 0 -60 -14 -93 -32 -54 -28 -69 -31 -150 -32 -73 -1 -92 2 -107 17 -17 17 -18 51 -18 515 l0 497 33 56 c37 65 41 115 13 150 l-18 23 -391 1 c-215 0 -396 -1 -402 -3z"/>
      <path d="M3665 5324 c-16 -3 -78 -14 -136 -24 -132 -25 -142 -25 -206 2 -46 19 -57 20 -93 9 -52 -15 -62 -38 -85 -186 -9 -60 -30 -163 -46 -227 -26 -103 -29 -121 -17 -145 23 -48 54 -50 170 -15 162 50 226 62 326 62 139 0 192 -31 192 -111 0 -48 -41 -85 -106 -95 -42 -6 -82 -4 -274 12 -111 9 -111 10 -114 -212 -2 -170 -1 -178 20 -203 l21 -25 109 13 c263 33 367 6 381 -98 5 -36 2 -44 -29 -75 -77 -77 -271 -74 -570 11 -107 30 -144 28 -171 -10 l-21 -27 22 -89 c12 -49 25 -141 29 -203 7 -136 18 -169 67 -192 127 -60 497 -93 741 -66 298 34 502 170 586 389 83 219 9 452 -168 533 -35 16 -63 35 -63 43 0 8 27 32 60 55 104 70 150 162 157 310 14 275 -132 469 -406 542 -74 19 -303 33 -376 22z"/>
      <path d="M5258 5320 c-188 -30 -302 -84 -413 -195 -163 -164 -249 -401 -262 -725 -13 -332 60 -580 222 -748 141 -148 299 -215 535 -228 312 -18 565 77 695 260 79 113 115 238 115 402 0 174 -42 288 -145 390 -144 145 -362 195 -612 140 -77 -17 -106 -6 -111 41 -10 103 131 174 316 160 42 -3 132 -22 200 -42 143 -40 193 -44 222 -15 26 26 25 61 -4 193 -14 59 -28 145 -31 190 -9 107 -21 154 -45 167 -27 14 -98 12 -147 -5 -36 -13 -51 -13 -125 1 -101 18 -332 26 -410 14z m252 -1082 c75 -39 99 -119 61 -204 -47 -103 -231 -111 -291 -12 -25 41 -26 111 -2 158 21 43 89 80 147 80 23 0 60 -10 85 -22z"/>
      <path d="M6895 5320 c-398 -62 -617 -339 -666 -843 -27 -284 26 -558 143 -733 133 -199 339 -307 610 -321 274 -14 496 54 638 197 119 119 171 258 172 461 1 173 -37 283 -134 385 -138 146 -331 200 -569 159 -124 -21 -140 -21 -157 2 -36 48 22 139 107 168 108 38 238 30 425 -26 112 -33 161 -36 194 -13 28 20 29 72 2 186 -10 46 -24 126 -30 178 -16 143 -19 159 -41 181 -24 24 -100 26 -153 4 -33 -14 -45 -14 -124 0 -105 20 -334 27 -417 15z m252 -1080 c111 -50 113 -212 3 -267 -152 -77 -308 65 -228 208 41 73 139 99 225 59z"/>
    </g>
  </g>
</svg>